<svg xmlns="http://www.w3.org/2000/svg" viewBox="0 0 512 512"><path d="M194.472 442.424c-11.356-16.898-16.2-22.649-18.519-21.987-1.727.53-13.71 1.468-26.631 2.165l-23.491 1.272-3.379-23.547c-1.86-12.951-4.023-25.265-4.801-27.363-.955-2.552-6.884-5.966-17.951-10.333-9.091-3.588-20.006-8.02-24.257-9.858l-7.73-3.346 7.262-24.147c3.994-13.281 7.262-25.354 7.262-26.827 0-1.476-7.518-11.072-16.707-21.329-9.19-10.257-16.707-19.508-16.707-20.557 0-1.052 7.517-10.302 16.707-20.559 9.19-10.256 16.707-19.855 16.707-21.328 0-1.476-3.268-13.546-7.262-26.827l-7.261-24.147 7.729-3.346c4.253-1.841 15.166-6.276 24.257-9.858 11.07-4.36 16.998-7.776 17.95-10.332.787-2.097 2.942-14.412 4.802-27.363l3.379-23.548 23.491 1.272c12.92.68 24.905 1.672 26.631 2.165 2.32.681 7.165-5.087 18.52-21.987 14.098-20.976 15.702-22.708 19.272-20.805 2.142 1.144 12.463 7.108 22.938 13.255 10.474 6.147 19.553 11.178 20.175 11.178.592 0 9.7-5.034 20.175-11.178 10.476-6.147 20.797-12.113 22.939-13.255 3.57-1.907 5.171-.226 19.271 20.805 11.357 16.897 16.201 22.648 18.52 21.987 1.727-.53 13.71-1.468 26.63-2.165l23.492-1.272 3.379 23.548c1.86 12.95 4.023 25.264 4.801 27.363.957 2.551 6.884 5.965 17.952 10.332 9.09 3.589 20.006 8.02 24.257 9.858l7.73 3.346-7.263 24.147c-3.993 13.281-7.261 25.353-7.261 26.827 0 1.476 7.517 11.072 16.707 21.328 9.19 10.257 16.706 19.509 16.706 20.559 0 1.051-7.517 10.3-16.706 20.557-9.19 10.257-16.707 19.856-16.707 21.329 0 1.468 3.268 13.546 7.261 26.827l7.262 24.147-7.73 3.377c-4.252 1.862-15.17 6.26-24.267 9.784-11.378 4.406-16.98 7.623-17.951 10.3-.779 2.142-2.934 14.484-4.794 27.435l-3.38 23.548-23.49-1.272c-12.92-.681-24.905-1.672-26.631-2.165-2.32-.681-7.166 5.087-18.52 21.987-14.098 20.976-15.702 22.709-19.272 20.805-2.148-1.144-12.462-7.109-22.938-13.255-10.474-6.147-19.553-11.178-20.175-11.178-.592 0-9.7 5.034-20.175 11.178-10.476 6.147-20.797 12.113-22.938 13.255-3.565 1.907-5.172.226-19.272-20.805zm42.937-23.663c9.978-5.769 18.73-10.494 19.449-10.494.741 0 9.471 4.724 19.449 10.494 9.978 5.768 18.562 10.495 19.076 10.495.52 0 6.342-8.185 12.954-18.19l12.02-18.19 22.597 1.265 22.595 1.256 3.557-22.411 3.556-22.412 18.677-7.555c10.272-4.156 19.39-8.259 20.266-9.126.874-.863-1.149-11.075-4.49-22.69l-6.076-21.118 14.29-16.082c7.86-8.845 14.291-16.689 14.291-17.43 0-.758-6.432-8.587-14.29-17.431l-14.291-16.082 6.076-21.118c3.341-11.615 5.364-21.826 4.49-22.692-.874-.863-9.994-4.973-20.266-9.126l-18.677-7.555-3.556-22.41-3.557-22.41-22.595 1.255-22.596 1.256-12.021-18.189c-6.61-10.004-12.441-18.19-12.954-18.19-.52 0-9.098 4.717-19.076 10.495-9.978 5.769-18.73 10.495-19.449 10.495-.741 0-9.471-4.724-19.449-10.495-9.978-5.768-18.562-10.494-19.076-10.494-.52 0-6.342 8.185-12.954 18.19l-12.022 18.188-22.595-1.256-22.595-1.255-3.557 22.41-3.556 22.41-18.677 7.555c-10.272 4.157-19.391 8.261-20.265 9.126-.875.872 1.149 11.077 4.49 22.692l6.076 21.118-14.29 16.082c-7.86 8.844-14.291 16.688-14.291 17.43 0 .757 6.431 8.586 14.29 17.431l14.291 16.082-6.076 21.117c-3.342 11.615-5.365 21.826-4.49 22.691.874.864 9.993 4.974 20.265 9.126l18.677 7.555 3.556 22.412 3.557 22.41 22.595-1.255 22.595-1.264 12.022 18.19c6.61 10.003 12.44 18.19 12.954 18.19.518 0 9.098-4.725 19.076-10.496zm46.163-86.895c-21.866-11.798-25.795-41.974-7.738-59.43 10.973-10.606 29.303-12.51 42.779-4.443 9.229 5.519 17.645 20.561 17.579 31.408-.06 13.447-10.946 29.69-22.96 34.327-8.142 3.142-21.993 2.271-29.66-1.863zm23.099-25.978c4.186-3.876 4.379-8.94.519-12.924-4.446-4.542-11.462-3.717-14.98 1.77-2.837 4.422-2.837 5.118 0 9.54 3.528 5.504 9.567 6.17 14.5 1.613zM202.743 323.56l-9.292-8.304 6.64-8.353c3.645-4.595 26.63-33.683 51.068-64.64 24.439-30.96 45.54-57.49 46.89-58.957 2.082-2.264 3.905-1.424 11.993 5.488 5.246 4.482 9.293 8.872 8.995 9.743-.912 2.65-104.756 133.407-105.918 133.365-.592-.02-5.26-3.778-10.373-8.343zm-8.687-79.133c-23.562-15.265-20.8-51.56 4.824-63.453 36.72-17.042 68.33 31.38 38.998 59.736-11.436 11.053-30.064 12.634-43.826 3.717zm27.07-25.282c6.084-8.88-5.83-19.519-13.704-12.235-4.238 3.914-4.712 7.132-1.86 12.58 2.682 5.11 11.965 4.906 15.564-.302z" stroke-width="1.888"/></svg>