<?xml version="1.0" encoding="UTF-8" standalone="no"?>
<!-- Generator: Adobe Illustrator 18.1.1, SVG Export Plug-In . SVG Version: 6.00 Build 0)  -->

<svg
   xmlns:dc="http://purl.org/dc/elements/1.1/"
   xmlns:cc="http://creativecommons.org/ns#"
   xmlns:rdf="http://www.w3.org/1999/02/22-rdf-syntax-ns#"
   xmlns:svg="http://www.w3.org/2000/svg"
   xmlns="http://www.w3.org/2000/svg"
   xmlns:sodipodi="http://sodipodi.sourceforge.net/DTD/sodipodi-0.dtd"
   xmlns:inkscape="http://www.inkscape.org/namespaces/inkscape"
   version="1.1"
   id="Layer_1"
   x="0px"
   y="0px"
   viewBox="0 0 512 512"
   enable-background="new 0 0 512 512"
   xml:space="preserve"
   sodipodi:docname="promo_normal.svg"
   inkscape:version="0.92.1 r15371"><metadata
     id="metadata8188"><rdf:RDF><cc:Work
         rdf:about=""><dc:format>image/svg+xml</dc:format><dc:type
           rdf:resource="http://purl.org/dc/dcmitype/StillImage" /><dc:title></dc:title></cc:Work></rdf:RDF></metadata><defs
     id="defs8186" /><sodipodi:namedview
     pagecolor="#ffffff"
     bordercolor="#666666"
     borderopacity="1"
     objecttolerance="10"
     gridtolerance="10"
     guidetolerance="10"
     inkscape:pageopacity="0"
     inkscape:pageshadow="2"
     inkscape:window-width="1366"
     inkscape:window-height="705"
     id="namedview8184"
     showgrid="false"
     showguides="true"
     inkscape:guide-bbox="true"
     inkscape:zoom="0.921875"
     inkscape:cx="218.4575"
     inkscape:cy="259.3061"
     inkscape:window-x="-8"
     inkscape:window-y="-8"
     inkscape:window-maximized="1"
     inkscape:current-layer="Layer_1"><sodipodi:guide
       position="256,464"
       orientation="0,1"
       id="guide8190"
       inkscape:locked="false" /><sodipodi:guide
       position="256,48"
       orientation="0,1"
       id="guide8192"
       inkscape:locked="false" /><sodipodi:guide
       position="48,256"
       orientation="1,0"
       id="guide8194"
       inkscape:locked="false" /><sodipodi:guide
       position="464,256"
       orientation="1,0"
       id="guide8196"
       inkscape:locked="false" /></sodipodi:namedview><path
     style="fill:#000000;fill-opacity:1;stroke-width:1.88775873"
     d="m 194.47245,442.42375 c -11.3569,-16.89744 -16.2005,-22.64849 -18.51916,-21.98693 -1.7272,0.5308 -13.71088,1.46817 -26.63129,2.16519 l -23.49097,1.27188 -3.37891,-23.54703 c -1.86051,-12.95103 -4.02331,-25.26474 -4.80143,-27.36323 -0.95476,-2.55115 -6.88368,-5.96517 -17.950845,-10.33259 -9.090988,-3.58807 -20.006199,-8.01979 -24.257138,-9.8579 l -7.729035,-3.34591 7.261458,-24.14732 c 3.993915,-13.28111 7.261458,-25.35407 7.261458,-26.82723 0,-1.47618 -7.517106,-11.07148 -16.706702,-21.32836 -9.189394,-10.25747 -16.706703,-19.50827 -16.706703,-20.55763 0,-1.05154 7.517309,-10.30133 16.706703,-20.55822 9.189596,-10.25687 16.706702,-19.85519 16.706702,-21.32836 0,-1.47617 -3.267543,-13.54591 -7.261458,-26.82704 l -7.261458,-24.14751 7.729035,-3.34592 c 4.253099,-1.8407 15.16615,-6.27582 24.257138,-9.85728 11.069535,-4.36042 16.998045,-7.77605 17.950845,-10.33242 0.78615,-2.09708 2.9417,-14.41218 4.80143,-27.36323 l 3.37891,-23.54781 23.49097,1.271869 c 12.92041,0.681 24.90486,1.672452 26.63129,2.165182 2.31926,0.681 7.1652,-5.087283 18.51916,-21.986929 14.09848,-20.976244 15.70275,-22.708181 19.27279,-20.804982 2.14146,1.143674 12.46244,7.108236 22.93754,13.254485 10.47431,6.147029 19.55356,11.178232 20.17521,11.178232 0.59208,0 9.7007,-5.034209 20.17518,-11.178232 10.47588,-6.146839 20.79688,-12.112218 22.93835,-13.254485 3.5714,-1.906812 5.17196,-0.226334 19.27178,20.804982 11.35693,16.896639 16.20073,22.647689 18.5192,21.986929 1.72719,-0.530777 13.71087,-1.468165 26.6313,-2.165182 l 23.49097,-1.271869 3.37892,23.54781 c 1.8605,12.95105 4.02351,25.26394 4.80143,27.36323 0.95672,2.55116 6.88366,5.96519 17.95162,10.33242 9.09098,3.58826 20.00621,8.01998 24.25713,9.85728 l 7.72924,3.34592 -7.26166,24.14751 c -3.99371,13.28113 -7.26146,25.35327 -7.26146,26.82704 0,1.47618 7.5171,11.07149 16.70672,21.32836 9.18959,10.25689 16.7067,19.50829 16.7067,20.55822 0,1.05155 -7.51711,10.30016 -16.7067,20.55763 -9.18962,10.25688 -16.70672,19.85518 -16.70672,21.32836 0,1.46816 3.26775,13.54612 7.26146,26.82723 l 7.26166,24.14732 -7.72924,3.37635 c -4.25308,1.86276 -15.17125,6.26041 -24.26753,9.78439 -11.37828,4.40589 -16.9794,7.62323 -17.95161,10.29935 -0.77832,2.14234 -2.93407,14.4847 -4.79398,27.43573 l -3.37891,23.54783 -23.49098,-1.27187 c -12.92041,-0.68102 -24.90489,-1.67246 -26.63129,-2.16499 -2.31926,-0.68099 -7.16521,5.08708 -18.51918,21.98673 -14.09847,20.97624 -15.70274,22.70918 -19.27202,20.80519 -2.14868,-1.14368 -12.46224,-7.10845 -22.93812,-13.25468 -10.4745,-6.14684 -19.55351,-11.17804 -20.17518,-11.17804 -0.59208,0 -9.70092,5.0342 -20.17521,11.17804 -10.47589,6.14703 -20.79688,12.11241 -22.93833,13.25468 -3.56417,1.90681 -5.17198,0.22633 -19.27201,-20.80519 z m 42.93649,-23.66297 c 9.97792,-5.7685 18.73033,-10.49364 19.44905,-10.49364 0.74106,0 9.47113,4.72373 19.44902,10.49364 9.97792,5.76847 18.56212,10.49542 19.07557,10.49542 0.51953,0 6.34279,-8.18564 12.95434,-18.18975 l 12.02094,-18.18954 22.59582,1.26386 22.59522,1.25584 3.55672,-22.41074 3.55672,-22.41156 18.67701,-7.5551 c 10.27199,-4.15611 19.39044,-8.25915 20.26558,-9.12582 0.87439,-0.86327 -1.14885,-11.07589 -4.49031,-22.69096 l -6.07595,-21.11706 14.29039,-16.08204 c 7.86021,-8.845 14.29102,-16.68914 14.29102,-17.43103 0,-0.75711 -6.43159,-8.58622 -14.29102,-17.43042 l -14.29039,-16.08204 6.07595,-21.11785 c 3.34165,-11.61489 5.36448,-21.82569 4.49031,-22.69158 -0.87437,-0.86326 -9.99359,-4.9737 -20.26557,-9.12601 l -18.67702,-7.55491 -3.55672,-22.41075 -3.55672,-22.41016 -22.59522,1.25584 -22.59582,1.25585 -12.02094,-18.18894 c -6.6094,-10.003913 -12.44088,-18.189546 -12.95434,-18.189546 -0.51953,0 -9.09765,4.71613 -19.07557,10.494628 -9.97789,5.768488 -18.73031,10.494438 -19.44902,10.494438 -0.74108,0 -9.47111,-4.72376 -19.44903,-10.494438 -9.97793,-5.768474 -18.56211,-10.494628 -19.07559,-10.494628 -0.51951,0 -6.34277,8.185633 -12.95452,18.189546 l -12.02152,18.18894 -22.59521,-1.25585 -22.59525,-1.25584 -3.55672,22.41016 -3.55652,22.41075 -18.67621,7.55491 c -10.27218,4.15612 -19.39139,8.26076 -20.26557,9.12601 -0.87438,0.87129 1.14883,11.07669 4.4903,22.69158 l 6.07594,21.11785 -14.290392,16.08204 c -7.860395,8.8442 -14.291194,16.68854 -14.291194,17.43023 0,0.75711 6.431581,8.58622 14.291194,17.43122 l 14.290392,16.08204 -6.07594,21.11706 c -3.34185,11.61488 -5.36468,21.82569 -4.4903,22.69096 0.87438,0.86326 9.99339,4.97351 20.26557,9.12582 l 18.67621,7.5551 3.55652,22.41135 3.55672,22.41095 22.59525,-1.25584 22.59521,-1.26386 12.02152,18.18954 c 6.6094,10.00391 12.44089,18.18975 12.95452,18.18975 0.51759,0 9.09766,-4.72395 19.07557,-10.49542 z m 46.16326,-86.89517 c -21.86612,-11.79794 -25.79553,-41.97351 -7.73805,-59.42899 10.97305,-10.60658 29.30324,-12.51038 42.77868,-4.44352 9.2288,5.51851 17.6448,20.56122 17.57873,31.40777 -0.0588,13.44698 -10.94562,29.68965 -22.95892,34.32708 -8.1425,3.1416 -21.99355,2.27114 -29.66044,-1.86274 z m 23.0983,-25.97779 c 4.18663,-3.87591 4.37914,-8.94035 0.51953,-12.92381 -4.4458,-4.54207 -11.462,-3.71686 -14.97951,1.77061 -2.83782,4.4211 -2.83782,5.11751 0,9.54002 3.52711,5.50349 9.56679,6.16967 14.4986,1.61238 z m -103.92734,17.67338 -9.29174,-8.3038 6.63921,-8.35369 c 3.64553,-4.59497 26.63051,-33.68273 51.06841,-64.64024 24.43888,-30.95892 45.53942,-57.48952 46.88961,-58.95668 2.08205,-2.26334 3.90492,-1.4241 11.99331,5.48846 5.24607,4.4816 9.2933,8.87145 8.99472,9.74294 -0.91164,2.64949 -104.75583,133.40633 -105.91762,133.36467 -0.59207,-0.0199 -5.26097,-3.77754 -10.37294,-8.34246 z m -8.68712,-79.13334 c -23.56214,-15.26525 -20.8006,-51.56062 4.82379,-63.45331 36.71958,-17.04125 68.3309,31.38135 38.99805,59.73624 -11.43611,11.05326 -30.0641,12.63398 -43.82635,3.71707 z m 27.07064,-25.28218 c 6.08342,-8.87985 -5.83147,-19.5183 -13.70421,-12.23419 -4.23839,3.91375 -4.71264,7.13109 -1.86051,12.5801 2.68234,5.10992 11.96527,4.90541 15.56414,-0.30245 z"
     id="path1065"
     inkscape:connector-curvature="0"
     inkscape:export-xdpi="300"
     inkscape:export-ydpi="300" /></svg>